#!OML:ASF H:\Terrain\Patient Classification 1\Walking\liu\liu.ASF
:FULLY-SPECIFIED
:DEGREES
33
root 7.983750 15.714900 -32.153999 7.565720 -8.237650 -7.409000
lowerback -82.601097 16.092400 39.198299
upperback -10.326700 16.382700 36.982300
thorax 35.637600 8.415220 18.184500
lowerneck -205.382996 -45.256100 -116.861000
upperneck 163.125000 -58.043999 145.044006
head 93.222801 -19.266899 62.075401
rclavicle 0.000000 0.000000
rhumerus -443.880005 208.117996 -930.651978
rradius 607.486023
rwrist -298.985016
rhand -298.627991 -310.506012
rfingers 71.250198
rthumb -31.849800 -610.065979
lclavicle 0.000000 0.000000
lhumerus -431.467010 -83.449799 912.351013
lradius 256.138000
lwrist 29.610802
lhand -113.148003 -260.925018
lfingers 71.250198
lthumb 147.171997 33.650600
rfemur 192.561005 70.280098 307.907990
rtibia 0.000000
rfoot -103.002007 -4.767020
rtoes -312.300995
lfemur -410.028992 54.895401 -87.889793
ltibia 241.735001
lfoot -87.698402 113.005997
ltoes -147.895996
34
root 8.009290 15.724700 -31.983000 7.553060 -8.645110 -7.300170
lowerback -83.650902 16.198900 35.953899
upperback -9.757401 16.669399 38.275700
thorax 36.685101 8.513960 21.430500
lowerneck -206.933990 -45.117203 -118.141006
upperneck 163.395996 -57.241302 144.699005
head 93.497398 -18.952700 62.306801
rclavicle -0.000000 -0.000000
rhumerus -445.591003 209.501984 -931.003052
rradius 605.213013
rwrist -295.880005
rhand -299.582001 -311.886993
rfingers 71.250198
rthumb -32.770901 -611.432983
lclavicle -0.000000 -0.000000
lhumerus -432.690002 -79.818802 913.328003
lradius 253.703003
lwrist 25.112301
lhand -86.859703 -235.137009
lfingers 71.250198
lthumb 172.487000 57.408199
rfemur 198.148010 72.248703 304.165985
rtibia -0.000000
rfoot -97.358597 -2.864930
rtoes -306.489990
lfemur -412.417969 63.837502 -93.424797
ltibia 252.610001
lfoot -62.238201 111.462006
ltoes -169.640015
35
root 8.038840 15.724800 -31.815599 7.593140 -8.772540 -7.114770
lowerback -85.790009 15.561900 32.487400
upperback -8.881460 15.937200 39.032600
thorax 38.683201 8.106211 24.174198
lowerneck -207.994003 -45.037399 -119.329994
upperneck 160.969009 -56.579800 145.579010
head 92.825500 -18.610899 62.856102
rclavicle 0.000000 0.000000
rhumerus -446.183014 209.463013 -931.130981
rradius 602.971985
rwrist -291.830017
rhand -303.614014 -324.584991
rfingers 71.250198
rthumb -36.665001 -624.067017
lclavicle 0.000000 0.000000
lhumerus -434.747009 -78.366302 915.286011
lradius 254.120010
lwrist 22.971100
lhand -93.230499 -232.682007
lfingers 71.250198
lthumb 166.354996 60.389297
rfemur 204.080994 71.613304 299.638000
rtibia -0.000000
rfoot -95.015602 -0.445072
rtoes -310.849976
lfemur -416.553986 69.716805 -99.408302
ltibia 265.118011
lfoot -41.603600 105.946999
ltoes -128.835999
36
root 8.071800 15.696200 -31.653700 7.660070 -8.621840 -6.980280
lowerback -86.902504 14.449600 30.034599
upperback -9.053909 14.622900 39.342800
thorax 39.077103 7.415360 25.750698
lowerneck -209.619003 -45.305599 -117.054993
upperneck 160.223007 -56.871399 143.128006
head 92.744904 -18.798901 61.490204
rclavicle -0.000000 -0.000000
rhumerus -446.333008 209.186005 -932.869995
rradius 596.404968
rwrist -288.890991
rhand -307.001007 -330.316010
rfingers 71.250198
rthumb -39.935299 -629.739014
lclavicle -0.000000 -0.000000
lhumerus -437.790985 -80.771103 918.837952
lradius 254.598999
lwrist 24.467800
lhand -151.261993 -269.518005
lfingers 71.250198
lthumb 110.430000 27.376699
rfemur 210.382004 68.409500 295.854004
rtibia -0.000000
rfoot -89.217598 -0.372881
rtoes -243.621994
lfemur -422.122009 71.923996 -103.885002
ltibia 279.453003
lfoot -24.287601 99.471802
ltoes -71.804802
